# Blender 3.4.1
# www.blender.org
mtllib billboard.mtl
o Billboard
v 0.572148 0.609326 0.000000
v 0.572148 7.166362 0.000000
v 0.572148 0.609326 -7.603045
v 0.572148 7.166362 -7.603045
v 1.227852 0.609326 0.000000
v 1.227852 7.166362 0.000000
v 1.227852 0.609326 -7.603045
v 1.227852 7.166362 -7.603045
v 0.572148 0.609326 -5.998122
v 0.572148 7.166362 -5.998122
v 1.227852 0.609326 -5.998122
v 1.227852 7.166362 -5.998122
v 0.572148 0.609326 -5.662218
v 1.227852 7.166362 -5.662218
v 0.572148 7.166362 -5.662218
v 1.227852 0.609326 -5.662218
v 1.906141 0.237751 0.000000
v 1.906141 7.537937 0.000000
v 1.906141 0.237751 -7.918937
v 1.906141 7.537937 -7.918937
v 1.906141 0.237751 -6.132117
v 1.906141 7.537937 -6.132117
v 1.906141 7.537937 -5.758143
v 1.906141 0.237751 -5.758143
v 2.676469 0.609326 0.000000
v 2.676469 7.166362 0.000000
v 2.676469 0.609326 -7.603045
v 2.676469 7.166362 -7.603045
v 2.676469 0.609326 -5.998122
v 2.676469 7.166362 -5.998122
v 2.676469 7.166362 -5.662218
v 2.676469 0.609326 -5.662218
v 2.317019 7.537937 -5.758143
v 2.317019 7.537937 0.000000
v 2.317019 7.537937 -7.918937
v 2.317019 0.237751 -7.918937
v 2.317019 7.537937 -6.132117
v 2.317019 0.237751 0.000000
v 2.317019 0.237751 -6.132117
v 2.317019 0.237751 -5.758143
v 2.384636 0.609326 0.000000
v 2.384636 7.166362 0.000000
v 2.384636 0.609326 -7.603045
v 2.384636 7.166362 -7.603045
v 2.384636 0.609326 -5.998122
v 2.384636 7.166362 -5.998122
v 2.384636 7.166362 -5.662218
v 2.384636 0.609326 -5.662218
v 1.906141 -1.591100 -6.132117
v 1.906141 -1.591100 -5.758143
v 2.317019 -1.591100 -6.132117
v 2.317019 -1.591100 -5.758143
v 1.856849 -1.749314 -6.176982
v 1.856849 -1.749314 -5.713278
v 2.366311 -1.749314 -6.176982
v 2.366311 -1.749314 -5.713278
v 1.819921 -2.082194 -6.210594
v 1.819921 -2.082194 -5.679667
v 2.403239 -2.082194 -6.210594
v 2.403239 -2.082194 -5.679667
v 1.778273 -2.256616 -6.448501
v 1.778273 -2.256616 -5.341759
v 2.444887 -2.256616 -6.448501
v 2.444887 -2.256616 -5.341759
v 1.778273 -2.971969 -6.448501
v 1.778273 -2.971969 -5.341759
v 2.444887 -2.971969 -6.448501
v 2.444887 -2.971969 -5.341759
v 0.572148 0.609326 -2.540787
v 1.227852 7.166362 -2.540787
v 0.572148 7.166362 -2.540787
v 1.227852 0.609326 -2.540787
v 1.906141 7.537937 -2.583831
v 2.384636 7.166362 -2.540787
v 1.906141 0.237751 -2.583831
v 2.676469 7.166362 -2.540787
v 2.676469 0.609326 -2.540787
v 2.317019 0.237751 -2.583831
v 2.317019 7.537937 -2.583831
v 2.384636 0.609326 -2.540787
v 0.572148 7.166362 -2.823709
v 1.227852 0.609326 -2.823709
v 1.906141 0.237751 -2.871546
v 2.676469 0.609326 -2.823709
v 2.317019 7.537937 -2.871546
v 2.384636 0.609326 -2.823709
v 0.572148 0.609326 -2.823709
v 1.227852 7.166362 -2.823709
v 1.906141 7.537937 -2.871546
v 2.384636 7.166362 -2.823709
v 2.676469 7.166362 -2.823709
v 2.317019 0.237751 -2.871546
v 1.906141 -1.506793 -2.583831
v 2.317019 -1.506793 -2.583831
v 1.906141 -1.506793 -2.871546
v 2.317019 -1.506793 -2.871546
v 1.857371 -1.670344 -2.549679
v 2.365789 -1.670344 -2.549679
v 1.857371 -1.670344 -2.905697
v 2.365789 -1.670344 -2.905697
v 1.818800 -2.079221 -2.522671
v 2.404360 -2.079221 -2.522671
v 1.818800 -2.079221 -2.932706
v 2.404360 -2.079221 -2.932706
v 1.780105 -2.308138 -2.249424
v 2.443055 -2.308138 -2.249424
v 1.727126 -2.314655 -3.223787
v 2.390075 -2.314655 -3.223787
v 1.736085 -3.016546 -2.218599
v 2.487076 -3.016546 -2.218599
v 1.683105 -3.023063 -3.254612
v 2.434096 -3.023063 -3.254612
v 0.572148 0.609326 7.603045
v 0.572148 7.166362 7.603045
v 1.227852 0.609326 7.603045
v 1.227852 7.166362 7.603045
v 0.572148 0.609326 5.998122
v 0.572148 7.166362 5.998122
v 1.227852 0.609326 5.998122
v 1.227852 7.166362 5.998122
v 0.572148 0.609326 5.662218
v 1.227852 7.166362 5.662218
v 0.572148 7.166362 5.662218
v 1.227852 0.609326 5.662218
v 1.906141 0.237751 7.918937
v 1.906141 7.537937 7.918937
v 1.906141 0.237751 6.132117
v 1.906141 7.537937 6.132117
v 1.906141 7.537937 5.758143
v 1.906141 0.237751 5.758143
v 2.676469 0.609326 7.603045
v 2.676469 7.166362 7.603045
v 2.676469 0.609326 5.998122
v 2.676469 7.166362 5.998122
v 2.676469 7.166362 5.662218
v 2.676469 0.609326 5.662218
v 2.317019 7.537937 5.758143
v 2.317019 7.537937 7.918937
v 2.317019 0.237751 7.918937
v 2.317019 7.537937 6.132117
v 2.317019 0.237751 6.132117
v 2.317019 0.237751 5.758143
v 2.384636 0.609326 7.603045
v 2.384636 7.166362 7.603045
v 2.384636 0.609326 5.998122
v 2.384636 7.166362 5.998122
v 2.384636 7.166362 5.662218
v 2.384636 0.609326 5.662218
v 1.906141 -1.591100 6.132117
v 1.906141 -1.591100 5.758143
v 2.317019 -1.591100 6.132117
v 2.317019 -1.591100 5.758143
v 1.856849 -1.749314 6.176982
v 1.856849 -1.749314 5.713278
v 2.366311 -1.749314 6.176982
v 2.366311 -1.749314 5.713278
v 1.819921 -2.082194 6.210594
v 1.819921 -2.082194 5.679667
v 2.403239 -2.082194 6.210594
v 2.403239 -2.082194 5.679667
v 1.778273 -2.256616 6.448501
v 1.778273 -2.256616 5.341759
v 2.444887 -2.256616 6.448501
v 2.444887 -2.256616 5.341759
v 1.778273 -2.971969 6.448501
v 1.778273 -2.971969 5.341759
v 2.444887 -2.971969 6.448501
v 2.444887 -2.971969 5.341759
v 0.572148 0.609326 2.540787
v 1.227852 7.166362 2.540787
v 0.572148 7.166362 2.540787
v 1.227852 0.609326 2.540787
v 1.906141 7.537937 2.583831
v 2.384636 7.166362 2.540787
v 1.906141 0.237751 2.583831
v 2.676469 7.166362 2.540787
v 2.676469 0.609326 2.540787
v 2.317019 0.237751 2.583831
v 2.317019 7.537937 2.583831
v 2.384636 0.609326 2.540787
v 0.572148 7.166362 2.823709
v 1.227852 0.609326 2.823709
v 1.906141 0.237751 2.871546
v 2.676469 0.609326 2.823709
v 2.317019 7.537937 2.871546
v 2.384636 0.609326 2.823709
v 0.572148 0.609326 2.823709
v 1.227852 7.166362 2.823709
v 1.906141 7.537937 2.871546
v 2.384636 7.166362 2.823709
v 2.676469 7.166362 2.823709
v 2.317019 0.237751 2.871546
v 1.906141 -1.506793 2.583831
v 2.317019 -1.506793 2.583831
v 1.906141 -1.506793 2.871546
v 2.317019 -1.506793 2.871546
v 1.857371 -1.670344 2.549679
v 2.365789 -1.670344 2.549679
v 1.857371 -1.670344 2.905697
v 2.365789 -1.670344 2.905697
v 1.818800 -2.079221 2.522671
v 2.404360 -2.079221 2.522671
v 1.818800 -2.079221 2.932706
v 2.404360 -2.079221 2.932706
v 1.780105 -2.308138 2.249424
v 2.443055 -2.308138 2.249424
v 1.727126 -2.314655 3.223787
v 2.390075 -2.314655 3.223787
v 1.736085 -3.016546 2.218599
v 2.487076 -3.016546 2.218599
v 1.683105 -3.023063 3.254612
v 2.434096 -3.023063 3.254612
vn -1.0000 -0.0000 -0.0000
vn -0.0000 -0.0000 -1.0000
vn -0.4804 0.8770 -0.0000
vn 1.0000 -0.0000 -0.0000
vn -0.0000 -1.0000 -0.0000
vn -0.0000 1.0000 -0.0000
vn -0.4222 -0.0000 -0.9065
vn 0.7187 0.6953 -0.0000
vn 0.6601 -0.0000 -0.7512
vn -0.0000 -0.0000 1.0000
vn -0.4804 -0.8770 -0.0000
vn 0.7187 -0.6953 -0.0000
vn -0.0000 0.2728 0.9621
vn -0.0000 0.1005 0.9949
vn -0.9547 0.2975 -0.0000
vn 0.9547 0.2975 -0.0000
vn -0.0000 0.2728 -0.9621
vn 0.9727 0.2322 -0.0000
vn -0.9939 0.1103 -0.0000
vn 0.9939 0.1103 -0.0000
vn -0.0000 0.1005 -0.9949
vn -0.0000 0.8065 -0.5913
vn -0.0000 0.8886 0.4587
vn -0.9727 0.2322 -0.0000
vn -0.0000 0.2044 -0.9789
vn -0.0000 0.0659 0.9978
vn -0.0000 0.2044 0.9789
vn -0.9583 0.2858 -0.0000
vn 0.9583 0.2858 -0.0000
vn -0.9625 0.2689 0.0356
vn -0.9956 0.0939 -0.0000
vn 0.9956 0.0939 -0.0000
vn -0.0000 0.0659 -0.9978
vn -0.0000 0.0435 -0.9991
vn 0.9978 0.0539 -0.0384
vn -0.0000 0.7775 -0.6289
vn -0.0000 0.7665 0.6422
vn -0.0000 -1.0000 0.0063
vn -0.0000 0.0435 0.9991
vn -0.9967 0.0619 0.0521
vn 0.9967 0.0619 -0.0529
vn -0.4222 -0.0000 0.9065
vn 0.6601 -0.0000 0.7512
vn -0.0000 0.8065 0.5913
vn -0.0000 0.8886 -0.4587
vn -0.9625 0.2689 -0.0356
vn 0.9978 0.0539 0.0384
vn -0.0000 0.7775 0.6289
vn -0.0000 0.7665 -0.6422
vn -0.0000 -1.0000 -0.0063
vn -0.9967 0.0619 -0.0521
vn 0.9967 0.0619 0.0529
vt 0.350000 0.644941
vt 0.375000 0.199613
vt 0.650000 0.644941
vt 0.625000 0.199613
vt 0.375000 0.475000
vt 0.350000 0.500000
vt 0.625000 0.475000
vt 0.650000 0.500000
vt 0.375000 0.644941
vt 0.625000 0.644941
vt 0.375000 0.500000
vt 0.625000 0.500000
vt 0.375000 0.416869
vt 0.350000 0.530595
vt 0.625000 0.416869
vt 0.650000 0.530595
vt 0.375000 0.530595
vt 0.625000 0.530595
vt 0.375000 0.404702
vt 0.350000 0.536999
vt 0.625000 0.536999
vt 0.625000 0.404702
vt 0.650000 0.536999
vt 0.375000 0.536999
vt 0.375000 0.644941
vt 0.625000 0.644941
vt 0.375000 0.500000
vt 0.625000 0.500000
vt 0.375000 0.530595
vt 0.625000 0.530595
vt 0.625000 0.536999
vt 0.375000 0.536999
vt 0.375000 0.644941
vt 0.625000 0.644941
vt 0.375000 0.500000
vt 0.625000 0.500000
vt 0.375000 0.530595
vt 0.625000 0.530595
vt 0.625000 0.536999
vt 0.375000 0.536999
vt 0.625000 0.536999
vt 0.625000 0.644941
vt 0.625000 0.500000
vt 0.375000 0.500000
vt 0.625000 0.530595
vt 0.375000 0.644941
vt 0.375000 0.530595
vt 0.375000 0.536999
vt 0.375000 0.644941
vt 0.625000 0.644941
vt 0.375000 0.500000
vt 0.625000 0.500000
vt 0.375000 0.530595
vt 0.625000 0.530595
vt 0.625000 0.536999
vt 0.375000 0.536999
vt 0.375000 0.530595
vt 0.375000 0.536999
vt 0.375000 0.530595
vt 0.375000 0.536999
vt 0.375000 0.530595
vt 0.375000 0.536999
vt 0.375000 0.530595
vt 0.375000 0.536999
vt 0.375000 0.530595
vt 0.375000 0.536999
vt 0.375000 0.530595
vt 0.375000 0.536999
vt 0.375000 0.530595
vt 0.375000 0.536999
vt 0.375000 0.530595
vt 0.375000 0.536999
vt 0.375000 0.530595
vt 0.375000 0.536999
vt 0.375000 0.530595
vt 0.375000 0.536999
vt 0.350000 0.596504
vt 0.375000 0.291642
vt 0.625000 0.596504
vt 0.650000 0.596504
vt 0.625000 0.291642
vt 0.375000 0.596504
vt 0.625000 0.596504
vt 0.625000 0.596504
vt 0.375000 0.596504
vt 0.625000 0.596504
vt 0.375000 0.596504
vt 0.375000 0.596504
vt 0.625000 0.596504
vt 0.375000 0.596504
vt 0.650000 0.591111
vt 0.625000 0.301889
vt 0.375000 0.591111
vt 0.375000 0.591111
vt 0.375000 0.591111
vt 0.625000 0.591111
vt 0.375000 0.591111
vt 0.350000 0.591111
vt 0.375000 0.301889
vt 0.625000 0.591111
vt 0.625000 0.591111
vt 0.625000 0.591111
vt 0.625000 0.591111
vt 0.375000 0.591111
vt 0.375000 0.596504
vt 0.375000 0.596504
vt 0.375000 0.591111
vt 0.375000 0.591111
vt 0.375000 0.596638
vt 0.375000 0.596638
vt 0.375000 0.590977
vt 0.375000 0.590977
vt 0.375000 0.596638
vt 0.375000 0.596638
vt 0.375000 0.590977
vt 0.375000 0.590977
vt 0.375000 0.596638
vt 0.375000 0.596638
vt 0.375000 0.590977
vt 0.375000 0.590977
vt 0.375000 0.596638
vt 0.375000 0.596638
vt 0.375000 0.590977
vt 0.375000 0.590977
vt 0.375000 0.475000
vt 0.350000 0.500000
vt 0.625000 0.475000
vt 0.650000 0.500000
vt 0.375000 0.500000
vt 0.625000 0.500000
vt 0.375000 0.416869
vt 0.350000 0.530595
vt 0.625000 0.416869
vt 0.650000 0.530595
vt 0.375000 0.530595
vt 0.625000 0.530595
vt 0.375000 0.404702
vt 0.350000 0.536999
vt 0.625000 0.536999
vt 0.625000 0.404702
vt 0.650000 0.536999
vt 0.375000 0.536999
vt 0.375000 0.500000
vt 0.625000 0.500000
vt 0.375000 0.530595
vt 0.625000 0.530595
vt 0.625000 0.536999
vt 0.375000 0.536999
vt 0.375000 0.500000
vt 0.625000 0.500000
vt 0.375000 0.530595
vt 0.625000 0.530595
vt 0.625000 0.536999
vt 0.375000 0.536999
vt 0.625000 0.536999
vt 0.625000 0.500000
vt 0.375000 0.500000
vt 0.625000 0.530595
vt 0.375000 0.530595
vt 0.375000 0.536999
vt 0.375000 0.500000
vt 0.625000 0.500000
vt 0.375000 0.530595
vt 0.625000 0.530595
vt 0.625000 0.536999
vt 0.375000 0.536999
vt 0.375000 0.530595
vt 0.375000 0.536999
vt 0.375000 0.530595
vt 0.375000 0.536999
vt 0.375000 0.530595
vt 0.375000 0.536999
vt 0.375000 0.530595
vt 0.375000 0.536999
vt 0.375000 0.530595
vt 0.375000 0.536999
vt 0.375000 0.530595
vt 0.375000 0.536999
vt 0.375000 0.530595
vt 0.375000 0.536999
vt 0.375000 0.530595
vt 0.375000 0.536999
vt 0.375000 0.530595
vt 0.375000 0.536999
vt 0.375000 0.530595
vt 0.375000 0.536999
vt 0.350000 0.596504
vt 0.375000 0.291642
vt 0.625000 0.596504
vt 0.650000 0.596504
vt 0.625000 0.291642
vt 0.375000 0.596504
vt 0.625000 0.596504
vt 0.625000 0.596504
vt 0.375000 0.596504
vt 0.625000 0.596504
vt 0.375000 0.596504
vt 0.375000 0.596504
vt 0.625000 0.596504
vt 0.375000 0.596504
vt 0.650000 0.591111
vt 0.625000 0.301889
vt 0.375000 0.591111
vt 0.375000 0.591111
vt 0.375000 0.591111
vt 0.625000 0.591111
vt 0.375000 0.591111
vt 0.350000 0.591111
vt 0.375000 0.301889
vt 0.625000 0.591111
vt 0.625000 0.591111
vt 0.625000 0.591111
vt 0.625000 0.591111
vt 0.375000 0.591111
vt 0.375000 0.596504
vt 0.375000 0.596504
vt 0.375000 0.591111
vt 0.375000 0.591111
vt 0.375000 0.596638
vt 0.375000 0.596638
vt 0.375000 0.590977
vt 0.375000 0.590977
vt 0.375000 0.596638
vt 0.375000 0.596638
vt 0.375000 0.590977
vt 0.375000 0.590977
vt 0.375000 0.596638
vt 0.375000 0.596638
vt 0.375000 0.590977
vt 0.375000 0.590977
vt 0.375000 0.596638
vt 0.375000 0.596638
vt 0.375000 0.590977
vt 0.375000 0.590977
s 0
f 9/13/1 10/15/1 4/7/1 3/5/1
f 3/5/2 4/7/2 8/12/2 7/11/2
f 8/12/3 12/18/3 22/30/3 20/28/3
f 80/90/4 74/84/4 42/50/4 41/49/4
f 69/77/5 72/82/5 5/9/5 1/1/5
f 70/79/6 71/80/6 2/3/6 6/10/6
f 8/12/6 4/8/6 10/16/6 12/18/6
f 3/6/5 7/11/5 11/17/5 9/14/5
f 7/11/7 8/12/7 20/28/7 19/27/7
f 13/19/1 15/22/1 10/15/1 9/13/1
f 87/99/1 81/92/1 15/22/1 13/19/1
f 12/18/6 10/16/6 15/23/6 14/21/6
f 9/14/5 11/17/5 16/24/5 13/20/5
f 70/79/3 6/10/3 18/26/3 73/83/3
f 37/45/8 33/41/8 31/39/8 30/38/8
f 36/44/9 35/43/9 28/36/9 27/35/9
f 79/89/8 34/42/8 26/34/8 76/86/8
f 27/35/10 28/36/10 44/52/10 43/51/10
f 11/17/11 7/11/11 19/27/11 21/29/11
f 16/24/11 11/17/11 21/29/11 24/32/11
f 82/93/11 16/24/11 24/32/11 83/94/11
f 12/18/3 14/21/3 23/31/3 22/30/3
f 76/86/5 26/34/5 42/50/5 74/84/5
f 32/40/6 29/37/6 45/53/6 48/56/6
f 84/95/6 32/40/6 48/56/6 86/97/6
f 35/43/8 37/45/8 30/38/8 28/36/8
f 43/51/4 44/52/4 46/54/4 45/53/4
f 39/47/12 36/44/12 27/35/12 29/37/12
f 92/104/12 40/48/12 32/40/12 84/95/12
f 40/48/12 39/47/12 29/37/12 32/40/12
f 24/32/1 21/29/1 49/57/1 50/58/1
f 83/94/5 24/32/5 40/48/5 92/104/5
f 21/29/5 19/27/5 36/44/5 39/47/5
f 45/53/4 46/54/4 47/55/4 48/56/4
f 20/28/6 22/30/6 37/45/6 35/43/6
f 73/83/6 18/26/6 34/42/6 79/89/6
f 19/27/2 20/28/2 35/43/2 36/44/2
f 22/30/6 23/31/6 33/41/6 37/45/6
f 30/38/5 31/39/5 47/55/5 46/54/5
f 28/36/5 30/38/5 46/54/5 44/52/5
f 29/37/6 27/35/6 43/51/6 45/53/6
f 52/60/13 50/58/13 54/62/13 56/64/13
f 21/29/2 39/47/2 51/59/2 49/57/2
f 40/48/10 24/32/10 50/58/10 52/60/10
f 39/47/4 40/48/4 52/60/4 51/59/4
f 56/64/14 54/62/14 58/66/14 60/68/14
f 50/58/15 49/57/15 53/61/15 54/62/15
f 51/59/16 52/60/16 56/64/16 55/63/16
f 49/57/17 51/59/17 55/63/17 53/61/17
f 59/67/18 60/68/18 64/72/18 63/71/18
f 54/62/19 53/61/19 57/65/19 58/66/19
f 55/63/20 56/64/20 60/68/20 59/67/20
f 53/61/21 55/63/21 59/67/21 57/65/21
f 64/72/10 62/70/10 66/74/10 68/76/10
f 57/65/22 59/67/22 63/71/22 61/69/22
f 60/68/23 58/66/23 62/70/23 64/72/23
f 58/66/24 57/65/24 61/69/24 62/70/24
f 66/74/5 65/73/5 67/75/5 68/76/5
f 62/70/1 61/69/1 65/73/1 66/74/1
f 63/71/4 64/72/4 68/76/4 67/75/4
f 61/69/2 63/71/2 67/75/2 65/73/2
f 89/101/6 73/83/6 79/89/6 85/96/6
f 17/25/5 75/85/5 78/88/5 38/46/5
f 38/46/12 78/88/12 77/87/12 25/33/12
f 25/33/6 77/87/6 80/90/6 41/49/6
f 91/103/5 76/86/5 74/84/5 90/102/5
f 5/9/11 72/82/11 75/85/11 17/25/11
f 85/96/8 79/89/8 76/86/8 91/103/8
f 88/100/3 70/79/3 73/83/3 89/101/3
f 1/2/1 2/4/1 71/81/1 69/78/1
f 88/100/6 81/91/6 71/80/6 70/79/6
f 87/98/5 82/93/5 72/82/5 69/77/5
f 86/97/4 90/102/4 74/84/4 80/90/4
f 48/56/4 47/55/4 90/102/4 86/97/4
f 13/20/5 16/24/5 82/93/5 87/98/5
f 14/21/6 15/23/6 81/91/6 88/100/6
f 14/21/3 88/100/3 89/101/3 23/31/3
f 33/41/8 85/96/8 91/103/8 31/39/8
f 31/39/5 91/103/5 90/102/5 47/55/5
f 23/31/6 89/101/6 85/96/6 33/41/6
f 78/88/10 75/85/10 93/105/10 94/106/10
f 78/88/12 92/104/12 84/95/12 77/87/12
f 77/87/6 84/95/6 86/97/6 80/90/6
f 72/82/11 82/93/11 83/94/11 75/85/11
f 69/78/1 71/81/1 81/92/1 87/99/1
f 95/107/25 96/108/25 100/112/25 99/111/25
f 92/104/4 78/88/4 94/106/4 96/108/4
f 83/94/2 92/104/2 96/108/2 95/107/2
f 75/85/1 83/94/1 95/107/1 93/105/1
f 98/110/26 97/109/26 101/113/26 102/114/26
f 94/106/27 93/105/27 97/109/27 98/110/27
f 93/105/28 95/107/28 99/111/28 97/109/28
f 96/108/29 94/106/29 98/110/29 100/112/29
f 101/113/30 103/115/30 107/119/30 105/117/30
f 97/109/31 99/111/31 103/115/31 101/113/31
f 100/112/32 98/110/32 102/114/32 104/116/32
f 99/111/33 100/112/33 104/116/33 103/115/33
f 107/119/34 108/120/34 112/124/34 111/123/34
f 104/116/35 102/114/35 106/118/35 108/120/35
f 103/115/36 104/116/36 108/120/36 107/119/36
f 102/114/37 101/113/37 105/117/37 106/118/37
f 109/121/38 111/123/38 112/124/38 110/122/38
f 106/118/39 105/117/39 109/121/39 110/122/39
f 105/117/40 107/119/40 111/123/40 109/121/40
f 108/120/41 106/118/41 110/122/41 112/124/41
f 117/131/1 113/125/1 114/127/1 118/133/1
f 113/125/10 115/129/10 116/130/10 114/127/10
f 116/130/3 126/144/3 128/146/3 120/136/3
f 180/200/4 41/49/4 42/50/4 174/194/4
f 169/187/5 1/1/5 5/9/5 172/192/5
f 170/189/6 6/10/6 2/3/6 171/190/6
f 116/130/6 120/136/6 118/134/6 114/128/6
f 113/126/5 117/132/5 119/135/5 115/129/5
f 115/129/42 125/143/42 126/144/42 116/130/42
f 121/137/1 117/131/1 118/133/1 123/140/1
f 187/209/1 121/137/1 123/140/1 181/202/1
f 120/136/6 122/139/6 123/141/6 118/134/6
f 117/132/5 121/138/5 124/142/5 119/135/5
f 170/189/3 173/193/3 18/26/3 6/10/3
f 140/158/8 134/152/8 135/153/8 137/155/8
f 139/157/43 131/149/43 132/150/43 138/156/43
f 179/199/8 176/196/8 26/34/8 34/42/8
f 131/149/2 143/161/2 144/162/2 132/150/2
f 119/135/11 127/145/11 125/143/11 115/129/11
f 124/142/11 130/148/11 127/145/11 119/135/11
f 182/203/11 183/204/11 130/148/11 124/142/11
f 120/136/3 128/146/3 129/147/3 122/139/3
f 176/196/5 174/194/5 42/50/5 26/34/5
f 136/154/6 148/166/6 145/163/6 133/151/6
f 184/205/6 186/207/6 148/166/6 136/154/6
f 138/156/8 132/150/8 134/152/8 140/158/8
f 143/161/4 145/163/4 146/164/4 144/162/4
f 141/159/12 133/151/12 131/149/12 139/157/12
f 192/214/12 184/205/12 136/154/12 142/160/12
f 142/160/12 136/154/12 133/151/12 141/159/12
f 130/148/1 150/168/1 149/167/1 127/145/1
f 183/204/5 192/214/5 142/160/5 130/148/5
f 127/145/5 141/159/5 139/157/5 125/143/5
f 145/163/4 148/166/4 147/165/4 146/164/4
f 126/144/6 138/156/6 140/158/6 128/146/6
f 173/193/6 179/199/6 34/42/6 18/26/6
f 125/143/10 139/157/10 138/156/10 126/144/10
f 128/146/6 140/158/6 137/155/6 129/147/6
f 134/152/5 146/164/5 147/165/5 135/153/5
f 132/150/5 144/162/5 146/164/5 134/152/5
f 133/151/6 145/163/6 143/161/6 131/149/6
f 152/170/17 156/174/17 154/172/17 150/168/17
f 127/145/10 149/167/10 151/169/10 141/159/10
f 142/160/2 152/170/2 150/168/2 130/148/2
f 141/159/4 151/169/4 152/170/4 142/160/4
f 156/174/21 160/178/21 158/176/21 154/172/21
f 150/168/15 154/172/15 153/171/15 149/167/15
f 151/169/16 155/173/16 156/174/16 152/170/16
f 149/167/13 153/171/13 155/173/13 151/169/13
f 159/177/18 163/181/18 164/182/18 160/178/18
f 154/172/19 158/176/19 157/175/19 153/171/19
f 155/173/20 159/177/20 160/178/20 156/174/20
f 153/171/14 157/175/14 159/177/14 155/173/14
f 164/182/2 168/186/2 166/184/2 162/180/2
f 157/175/44 161/179/44 163/181/44 159/177/44
f 160/178/45 164/182/45 162/180/45 158/176/45
f 158/176/24 162/180/24 161/179/24 157/175/24
f 166/184/5 168/186/5 167/185/5 165/183/5
f 162/180/1 166/184/1 165/183/1 161/179/1
f 163/181/4 167/185/4 168/186/4 164/182/4
f 161/179/10 165/183/10 167/185/10 163/181/10
f 189/211/6 185/206/6 179/199/6 173/193/6
f 17/25/5 38/46/5 178/198/5 175/195/5
f 38/46/12 25/33/12 177/197/12 178/198/12
f 25/33/6 41/49/6 180/200/6 177/197/6
f 191/213/5 190/212/5 174/194/5 176/196/5
f 5/9/11 17/25/11 175/195/11 172/192/11
f 185/206/8 191/213/8 176/196/8 179/199/8
f 188/210/3 189/211/3 173/193/3 170/189/3
f 1/2/1 169/188/1 171/191/1 2/4/1
f 188/210/6 170/189/6 171/190/6 181/201/6
f 187/208/5 169/187/5 172/192/5 182/203/5
f 186/207/4 180/200/4 174/194/4 190/212/4
f 148/166/4 186/207/4 190/212/4 147/165/4
f 121/138/5 187/208/5 182/203/5 124/142/5
f 122/139/6 188/210/6 181/201/6 123/141/6
f 122/139/3 129/147/3 189/211/3 188/210/3
f 137/155/8 135/153/8 191/213/8 185/206/8
f 135/153/5 147/165/5 190/212/5 191/213/5
f 129/147/6 137/155/6 185/206/6 189/211/6
f 178/198/2 194/216/2 193/215/2 175/195/2
f 178/198/12 177/197/12 184/205/12 192/214/12
f 177/197/6 180/200/6 186/207/6 184/205/6
f 172/192/11 175/195/11 183/204/11 182/203/11
f 169/188/1 187/209/1 181/202/1 171/191/1
f 195/217/27 199/221/27 200/222/27 196/218/27
f 192/214/4 196/218/4 194/216/4 178/198/4
f 183/204/10 195/217/10 196/218/10 192/214/10
f 175/195/1 193/215/1 195/217/1 183/204/1
f 198/220/33 202/224/33 201/223/33 197/219/33
f 194/216/25 198/220/25 197/219/25 193/215/25
f 193/215/28 197/219/28 199/221/28 195/217/28
f 196/218/29 200/222/29 198/220/29 194/216/29
f 201/223/46 205/227/46 207/229/46 203/225/46
f 197/219/31 201/223/31 203/225/31 199/221/31
f 200/222/32 204/226/32 202/224/32 198/220/32
f 199/221/26 203/225/26 204/226/26 200/222/26
f 207/229/39 211/233/39 212/234/39 208/230/39
f 204/226/47 208/230/47 206/228/47 202/224/47
f 203/225/48 207/229/48 208/230/48 204/226/48
f 202/224/49 206/228/49 205/227/49 201/223/49
f 209/231/50 210/232/50 212/234/50 211/233/50
f 206/228/34 210/232/34 209/231/34 205/227/34
f 205/227/51 209/231/51 211/233/51 207/229/51
f 208/230/52 212/234/52 210/232/52 206/228/52
